# xmcd
#
# Track frame offsets: 
#        150
#        12503
#        23350
#        33501
#        44317
#        56361
#        66781
#        78389
#        88325
#        99538
#        107707
#        120214
#        131334
#        141148
#        149561
#        159741
#
# Disc length: 2311 seconds
#
# Revision: 2
# Processed by: cddbd v1.5.2PL0 Copyright (c) Steve Scherf et al.
# Submitted via: ExactAudioCopyFreeDBPlugin 1.0
#
DISCID=d1090510
DTITLE=Johnny Cash - The Best Of - CD 2
DYEAR=1900
DGENRE=Country
TTITLE0=Rock Island Line
TTITLE1=Cold Cold Heart
TTITLE2=I Could Never Be Ashamed Of You
TTITLE3=I Heard That Lonesome Whistle Blow
TTITLE4=Port Of Lonely Hearts
TTITLE5=Straight A's In Love
TTITLE6=Thanks A Lot
TTITLE7=Hey! Porter
TTITLE8=I Love You Because
TTITLE9=Guess Things Happen That Way
TTITLE10=Next In Line
TTITLE11=I Just Thought You'd Like To Know
TTITLE12=Just About Time
TTITLE13=Country Boy
TTITLE14=Goodbye Little Darlin' Goodbye
TTITLE15=Don't Take Your Guns To Town
EXTD=
EXTT0=
EXTT1=
EXTT2=
EXTT3=
EXTT4=
EXTT5=
EXTT6=
EXTT7=
EXTT8=
EXTT9=
EXTT10=
EXTT11=
EXTT12=
EXTT13=
EXTT14=
EXTT15=
PLAYORDER=
